# xmcd CD database file generated by GCD 2.91
# 
# Track frame offsets:
#       150
#       18735
#       36437
#       53807
#       66265
#       83007
#       85962
#       102827
#       118865
#       136030
#       154345
#       173165
# 
# Disc length: 2461 seconds
# 
# Revision: 3
# Processed by: cddbd v1.4PL0 Copyright (c) Steve Scherf et al.
# Submitted via: GCD 2.91
# 
DISCID=9e099b0c
DTITLE=Fonográf - Fonográf I.
DYEAR=1900
DGENRE=
TTITLE0=A szombat esti lány
TTITLE1=Élsz valahol
TTITLE2=Társasjáték
TTITLE3=Az elsõ villamos
TTITLE4=Valaki vár
TTITLE5=Nem érti senki
TTITLE6=Szegény kisfiú panaszai
TTITLE7=Fortuna hálójában
TTITLE8=Mondd, hogy nem haragszol rám
TTITLE9=Oszkár blues
TTITLE10=Hét évig tart
TTITLE11=Lökd ide a sört!
EXTD=Hungaroton HCD 17471\n(P) 1974
EXTT0=Szörényi Levente - Bródy János
EXTT1=Tolcsvay László - Bródy János
EXTT2=Szörényi Levente - Bródy János
EXTT3=Tolcsvay László - Bródy János
EXTT4=Szörényi Levente - Bródy János
EXTT5=Tolcsvay László
EXTT6=Tolcsvay László - Bródy János
EXTT7=Móricz Mihály - Bródy János
EXTT8=Szörényi Levente - Bródy János
EXTT9=Németh Oszkár
EXTT10=Bródy János
EXTT11=Fonográf együttes
PLAYORDER=
